<svg id="visual" viewBox="0 0 1920 1080" width="1920" height="1080" xmlns="http://www.w3.org/2000/svg" xmlns:xlink="http://www.w3.org/1999/xlink" version="1.1"><g transform="translate(947.3712500142433 580.7033272324497)"><path d="M161.3 -222.6C197.9 -161.5 208.8 -100.1 230.6 -32.4C252.4 35.4 285.1 109.4 266.4 165.2C247.8 221 177.8 258.5 113.3 259.6C48.7 260.8 -10.3 225.5 -76.7 204.2C-143.2 182.9 -217.1 175.4 -239 137.8C-261 100.2 -230.9 32.4 -210.7 -29.3C-190.5 -91 -180.1 -146.6 -146.6 -208.2C-113.1 -269.8 -56.6 -337.4 2.9 -340.9C62.4 -344.3 124.7 -283.6 161.3 -222.6" fill="#35307e"></path></g></svg>