<svg id="visual" viewBox="0 0 1920 1080" width="1920" height="1080" xmlns="http://www.w3.org/2000/svg" xmlns:xlink="http://www.w3.org/1999/xlink" version="1.1"><g transform="translate(1035.5261474987974 505.1921445102232)"><path d="M162.7 -249.4C215.6 -185.4 266.6 -144.3 282 -92.7C297.4 -41 277.1 21.2 277 111.2C277 201.2 297.2 319.1 254.4 394C211.6 468.9 105.8 501 20.5 472.8C-64.9 444.6 -129.7 356.2 -196.1 288.9C-262.5 221.7 -330.5 175.6 -379.1 104.6C-427.7 33.7 -456.8 -62.1 -426.4 -133.2C-395.9 -204.2 -305.8 -250.6 -224.8 -305.4C-143.8 -360.3 -71.9 -423.6 -8.5 -411.9C54.9 -400.2 109.7 -313.3 162.7 -249.4" fill="#FF0ABA"></path></g></svg>