<svg id="visual" viewBox="0 0 1920 1080" width="1920" height="1080" xmlns="http://www.w3.org/2000/svg" xmlns:xlink="http://www.w3.org/1999/xlink" version="1.1"><rect x="0" y="0" width="1920" height="1080" fill="#FF0ABA"></rect><defs><linearGradient id="grad1_0" x1="43.8%" y1="0%" x2="100%" y2="100%"><stop offset="14.444444444444446%" stop-color="#ffffff" stop-opacity="1"></stop><stop offset="85.55555555555554%" stop-color="#ffffff" stop-opacity="1"></stop></linearGradient></defs><defs><linearGradient id="grad1_1" x1="43.8%" y1="0%" x2="100%" y2="100%"><stop offset="14.444444444444446%" stop-color="#ffffff" stop-opacity="1"></stop><stop offset="85.55555555555554%" stop-color="#ffc3e8" stop-opacity="1"></stop></linearGradient></defs><defs><linearGradient id="grad1_2" x1="43.8%" y1="0%" x2="100%" y2="100%"><stop offset="14.444444444444446%" stop-color="#ff81d1" stop-opacity="1"></stop><stop offset="85.55555555555554%" stop-color="#ffc3e8" stop-opacity="1"></stop></linearGradient></defs><defs><linearGradient id="grad1_3" x1="43.8%" y1="0%" x2="100%" y2="100%"><stop offset="14.444444444444446%" stop-color="#ff81d1" stop-opacity="1"></stop><stop offset="85.55555555555554%" stop-color="#ff0aba" stop-opacity="1"></stop></linearGradient></defs><defs><linearGradient id="grad2_0" x1="0%" y1="0%" x2="56.3%" y2="100%"><stop offset="14.444444444444446%" stop-color="#ffffff" stop-opacity="1"></stop><stop offset="85.55555555555554%" stop-color="#ffffff" stop-opacity="1"></stop></linearGradient></defs><defs><linearGradient id="grad2_1" x1="0%" y1="0%" x2="56.3%" y2="100%"><stop offset="14.444444444444446%" stop-color="#ffc3e8" stop-opacity="1"></stop><stop offset="85.55555555555554%" stop-color="#ffffff" stop-opacity="1"></stop></linearGradient></defs><defs><linearGradient id="grad2_2" x1="0%" y1="0%" x2="56.3%" y2="100%"><stop offset="14.444444444444446%" stop-color="#ffc3e8" stop-opacity="1"></stop><stop offset="85.55555555555554%" stop-color="#ff81d1" stop-opacity="1"></stop></linearGradient></defs><defs><linearGradient id="grad2_3" x1="0%" y1="0%" x2="56.3%" y2="100%"><stop offset="14.444444444444446%" stop-color="#ff0aba" stop-opacity="1"></stop><stop offset="85.55555555555554%" stop-color="#ff81d1" stop-opacity="1"></stop></linearGradient></defs><g transform="translate(1920, 0)"><path d="M0 1080C-112.1 998.7 -224.1 917.4 -363.9 878.6C-503.7 839.9 -671.2 843.7 -763.7 763.7C-856.1 683.6 -873.5 519.7 -913.7 378.5C-953.9 237.2 -1017 118.6 -1080 0L0 0Z" fill="#ff58c5"></path><path d="M0 810C-84.1 749 -168.1 688 -272.9 659C-377.8 629.9 -503.4 632.8 -572.8 572.8C-642.1 512.7 -655.1 389.8 -685.3 283.9C-715.4 177.9 -762.7 89 -810 0L0 0Z" fill="#ffa3dc"></path><path d="M0 540C-56 499.3 -112.1 458.7 -182 439.3C-251.9 419.9 -335.6 421.9 -381.8 381.8C-428.1 341.8 -436.8 259.9 -456.9 189.2C-477 118.6 -508.5 59.3 -540 0L0 0Z" fill="#ffe1f3"></path><path d="M0 270C-28 249.7 -56 229.3 -91 219.7C-125.9 210 -167.8 210.9 -190.9 190.9C-214 170.9 -218.4 129.9 -228.4 94.6C-238.5 59.3 -254.2 29.7 -270 0L0 0Z" fill="#ffffff"></path></g><g transform="translate(0, 1080)"><path d="M0 -1080C92.6 -950.4 185.2 -820.9 326.4 -788.1C467.6 -755.3 657.5 -819.3 763.7 -763.7C869.9 -708.1 892.5 -533 931.3 -385.7C970.1 -238.5 1025 -119.3 1080 0L0 0Z" fill="#ff58c5"></path><path d="M0 -810C69.5 -712.8 138.9 -615.6 244.8 -591.1C350.7 -566.5 493.1 -614.4 572.8 -572.8C652.4 -531.1 669.4 -399.7 698.5 -289.3C727.5 -178.9 768.8 -89.5 810 0L0 0Z" fill="#ffa3dc"></path><path d="M0 -540C46.3 -475.2 92.6 -410.4 163.2 -394C233.8 -377.6 328.7 -409.6 381.8 -381.8C434.9 -354 446.2 -266.5 465.6 -192.9C485 -119.3 512.5 -59.6 540 0L0 0Z" fill="#ffe1f3"></path><path d="M0 -270C23.2 -237.6 46.3 -205.2 81.6 -197C116.9 -188.8 164.4 -204.8 190.9 -190.9C217.5 -177 223.1 -133.2 232.8 -96.4C242.5 -59.6 256.3 -29.8 270 0L0 0Z" fill="#ffffff"></path></g></svg>